<svg xmlns="http://www.w3.org/2000/svg" width="194" height="168" viewBox="0 0 194 168">
  <g id="Group_51" data-name="Group 51" transform="translate(-459 -10979)">
    <g id="Polygon_1" data-name="Polygon 1" transform="translate(459 10979)" fill="#fff">
      <path d="M 176.6790313720703 167.5 L 17.32096290588379 167.5 C 13.88650798797607 167.5 10.81087112426758 165.7242736816406 9.093667030334473 162.7499084472656 C 7.376461982727051 159.7755432128906 7.376530170440674 156.22412109375 9.093825340270996 153.2498016357422 L 88.77285003662109 15.24900245666504 C 90.49009704589844 12.27484321594238 93.56566619873047 10.49920654296875 97.00000762939453 10.49920654296875 C 100.434326171875 10.49920654296875 103.509895324707 12.27484321594238 105.2271423339844 15.24900245666504 L 184.9061737060547 153.2498016357422 C 186.6234588623047 156.22412109375 186.62353515625 159.7755432128906 184.9063415527344 162.7499084472656 C 183.1891479492188 165.7242736816406 180.1135101318359 167.5 176.6790313720703 167.5 Z" stroke="none"/>
      <path d="M 96.99998474121094 10.99917602539062 C 93.74641418457031 10.99917602539062 90.83274841308594 12.68136596679688 89.20588684082031 15.49903869628906 L 9.526840209960938 153.4998168945312 C 7.899917602539062 156.3175811767578 7.899871826171875 159.6820831298828 9.526702880859375 162.4999237060547 C 11.15350341796875 165.3177185058594 14.06727600097656 166.9999847412109 17.32095336914062 166.9999847412109 L 176.6790313720703 166.9999847412109 C 179.9327392578125 166.9999847412109 182.8465118408203 165.3177032470703 184.4733123779297 162.4998931884766 C 186.1001281738281 159.6820831298828 186.1000518798828 156.3175659179688 184.4731292724609 153.4998168945312 L 104.7941055297852 15.49903869628906 C 103.1672439575195 12.68136596679688 100.2535552978516 10.99917602539062 96.99998474121094 10.99917602539062 M 96.99999237060547 9.999191284179688 C 100.3677978515625 9.999191284179688 103.7356033325195 11.66580200195312 105.6601257324219 14.99900817871094 L 185.3391571044922 152.9998016357422 C 189.1883850097656 159.6664581298828 184.3771209716797 167.9999847412109 176.6790313720703 167.9999847412109 L 17.32095336914062 167.9999847412109 C 9.62286376953125 167.9999847412109 4.811630249023438 159.6664581298828 8.660812377929688 152.9998016357422 L 88.33986663818359 14.99900817871094 C 90.26438903808594 11.66580200195312 93.63219451904297 9.999191284179688 96.99999237060547 9.999191284179688 Z" stroke="none" fill="#707070"/>
    </g>
    <g id="Polygon_2" data-name="Polygon 2" transform="translate(489 11015)" fill="#fff">
      <path d="M 124.2948379516602 113.5 L 124.2948226928711 113.5 L 8.705190658569336 113.5 C 7.07415771484375 113.5 5.615407466888428 112.655632019043 4.803040981292725 111.2412796020508 C 3.990690946578979 109.8269500732422 3.996340990066528 108.1414489746094 4.818174362182617 106.7325820922852 L 62.61299133300781 7.655749320983887 C 63.42847442626953 6.257782459259033 64.88156127929688 5.423182487487793 66.50000762939453 5.423182487487793 C 68.11843872070312 5.423182487487793 69.57152557373047 6.257782459259033 70.38700866699219 7.655749320983887 L 128.1818237304688 106.7325820922852 C 129.0035858154297 108.1413192749023 129.0091857910156 109.8267517089844 128.1968078613281 111.2411499023438 C 127.384407043457 112.6555633544922 125.9257278442383 113.5 124.2948379516602 113.5 Z" stroke="none"/>
      <path d="M 66.49999237060547 5.923164367675781 C 65.06137084960938 5.923164367675781 63.76976013183594 6.665031433105469 63.04489135742188 7.907684326171875 L 5.250076293945312 106.9845123291016 C 4.519561767578125 108.2368316650391 4.5145263671875 109.7350463867188 5.236625671386719 110.9922332763672 C 5.958709716796875 112.2494354248047 7.25537109375 113 8.705192565917969 113 L 124.294807434082 113 C 125.7446441650391 113 127.0413055419922 112.2494354248047 127.7633895874023 110.9922332763672 C 128.4854888916016 109.7350463867188 128.4804534912109 108.2368316650391 127.7499237060547 106.9845123291016 L 69.95510864257812 7.907684326171875 C 69.23023986816406 6.665046691894531 67.93860626220703 5.923164367675781 66.49999237060547 5.923164367675781 M 66.5 4.923164367675781 C 68.17710113525391 4.923164367675781 69.85420227050781 5.750045776367188 70.81889343261719 7.403816223144531 L 128.6137084960938 106.4806518554688 C 130.5581359863281 109.8139343261719 128.1537780761719 114 124.294807434082 114 L 8.705192565917969 114 C 4.846237182617188 114 2.441879272460938 109.8139343261719 4.38629150390625 106.4806518554688 L 62.18110656738281 7.403816223144531 C 63.14579772949219 5.750045776367188 64.82289886474609 4.923164367675781 66.5 4.923164367675781 Z" stroke="none" fill="#707070"/>
    </g>
  </g>
</svg>
